<?xml version="1.0" encoding="UTF-8"?>
<svg width="206px" height="206px" viewBox="0 0 206 206" version="1.1" xmlns="http://www.w3.org/2000/svg" xmlns:xlink="http://www.w3.org/1999/xlink">
    <title>Group 2</title>
    <defs>
        <linearGradient x1="50%" y1="0%" x2="50%" y2="100%" id="linearGradient-1">
            <stop stop-color="#000000" stop-opacity="0.5" offset="0%"></stop>
            <stop stop-color="#000000" stop-opacity="0.5" offset="100%"></stop>
        </linearGradient>
        <linearGradient x1="50%" y1="0%" x2="50%" y2="100%" id="linearGradient-2">
            <stop stop-color="#5D547B" stop-opacity="0.5" offset="0%"></stop>
            <stop stop-color="#0D0D2E" stop-opacity="0.5" offset="100%"></stop>
        </linearGradient>
        <linearGradient x1="50%" y1="0%" x2="50%" y2="100%" id="linearGradient-3">
            <stop stop-color="#8BD3FF" offset="0%"></stop>
            <stop stop-color="#126CA7" offset="100%"></stop>
        </linearGradient>
        <rect id="path-4" x="0" y="0" width="200" height="200" rx="21.0218978"></rect>
        <filter x="-2.5%" y="-2.0%" width="105.0%" height="105.0%" filterUnits="objectBoundingBox" id="filter-5">
            <feOffset dx="0" dy="1" in="SourceAlpha" result="shadowOffsetOuter1"></feOffset>
            <feGaussianBlur stdDeviation="1.5" in="shadowOffsetOuter1" result="shadowBlurOuter1"></feGaussianBlur>
            <feComposite in="shadowBlurOuter1" in2="SourceAlpha" operator="out" result="shadowBlurOuter1"></feComposite>
            <feColorMatrix values="0 0 0 0 0   0 0 0 0 0   0 0 0 0 0  0 0 0 0.5 0" type="matrix" in="shadowBlurOuter1"></feColorMatrix>
        </filter>
        <linearGradient x1="50%" y1="0%" x2="50%" y2="100%" id="linearGradient-6">
            <stop stop-color="#FFFFFF" stop-opacity="0.329163024" offset="0%"></stop>
            <stop stop-color="#000000" stop-opacity="0.246503497" offset="100%"></stop>
        </linearGradient>
        <path d="M32.8227571,0 C30.0677698,0 27.4735613,1.29710422 25.8205689,3.50109409 L0.875273523,36.761488 C0.307124166,37.5190204 0,38.4403929 0,39.3873085 L0,131.291028 C0,136.125031 3.91873304,140.043764 8.75273523,140.043764 L131.291028,140.043764 C136.125031,140.043764 140.043764,136.125031 140.043764,131.291028 L140.043764,39.3873085 C140.043764,38.4403929 139.73664,37.5190204 139.16849,36.761488 L114.223195,3.50109409 C112.570202,1.29710422 109.975994,0 107.221007,0 L32.8227571,0 Z M32.8227571,8.75273523 L65.6455142,8.75273523 L65.6455142,35.0109409 L13.1291028,35.0109409 L32.8227571,8.75273523 Z M74.3982495,35.0109409 L74.3982495,8.75273523 L107.221007,8.75273523 L126.914661,35.0109409 L74.3982495,35.0109409 Z M131.291028,43.7636761 L131.291028,131.291028 L8.75273523,131.291028 L8.75273523,43.7636761 L131.291028,43.7636761 Z" id="path-7"></path>
    </defs>
    <g id="github-logo" stroke="none" stroke-width="1" fill="none" fill-rule="evenodd">
        <g id="Group" transform="translate(3.000000, 2.000000)">
            <g id="Rectangle">
                <use fill="black" fill-opacity="1" filter="url(#filter-5)" xlink:href="#path-4"></use>
                <use fill="#514656" fill-rule="evenodd" xlink:href="#path-4"></use>
                <use fill-opacity="0.7" fill="url(#linearGradient-1)" fill-rule="evenodd" xlink:href="#path-4"></use>
                <rect stroke="url(#linearGradient-3)" stroke-width="6.13138686" stroke-linejoin="square" fill-opacity="0.6" fill="url(#linearGradient-2)" fill-rule="evenodd" x="3.06569343" y="3.06569343" width="193.868613" height="193.868613" rx="21.0218978"></rect>
            </g>
            <g id="box2-heart" transform="translate(33.260394, 33.698031)" fill-rule="nonzero">
                <path d="M70.0218818,69.8643326 C84.5864333,55.2210066 121.006565,80.8402626 70.0218818,113.785558 C19.0371991,80.8402626 55.4573304,55.2297593 70.0218818,69.8643326 Z" id="Path" fill="#FFFFFF"></path>
                <g id="Shape">
                    <use fill="#32C5FF" xlink:href="#path-7"></use>
                    <use fill="url(#linearGradient-6)" xlink:href="#path-7"></use>
                </g>
            </g>
        </g>
    </g>
</svg>